<?xml version="1.0" encoding="UTF-8"?>
<svg id="Layer_1" xmlns="http://www.w3.org/2000/svg" viewBox="0 0 1484.61 249.07">
  <defs>
    <style>
      .cls-1 {
        fill: #282f74;
      }
    </style>
  </defs>
  <g>
    <path class="cls-1" d="M50.85,79.46h69l-37.07,115.9s254.33-.5,255.61-.61c7.97-.68,20.04-1.25,33.71-44.91,13.06-41.7,35.52-95.58,3.93-96.16-1.85-.03-318.09.86-317.66.32L75.29,0h351.26s50.32,12.67,35.46,64.84c-14.86,52.16-42.17,139.42-42.17,139.42,0,0-14.23,43.56-73.71,44.78-3.88.08-346.12,0-346.12,0L50.85,79.46Z"/>
    <polygon class="cls-1" points="141.49 79.46 170.74 79.46 151.42 141.86 121.5 141.86 141.49 79.46"/>
    <polygon class="cls-1" points="120.1 146.92 113.09 169.65 213.15 169.65 218.45 146.92 120.1 146.92"/>
    <polygon class="cls-1" points="240.94 104.32 220.95 169.65 249.71 169.65 269.97 104.32 240.94 104.32"/>
    <path class="cls-1" d="M249.18,79.46h105.34c3.6.6,10.17.74,13.06,6.64,1.86,3.8.45,9.38.01,11.37-2.43,10.95-17.28,53.61-22.21,67.66-.95,2.71-3.51,4.52-6.38,4.52h-25.44l20.47-69.23s3.07-8.15-5.98-8.52c-9.05-.37-10.2,7.09-10.2,7.09l-31.23.03s2.66-7.54-5.93-7.63c-8.59-.09-10.05,7.52-10.05,7.52l-28.39.16,6.91-19.6Z"/>
    <polygon class="cls-1" points="316.95 104.32 300.9 159.17 269.97 159.17 285.6 104.32 316.95 104.32"/>
  </g>
  <g>
    <path class="cls-1" d="M577.08,164.37c0,10.52-2.32,19.7-6.97,27.53s-11.26,13.89-19.82,18.17c-8.57,4.28-18.72,6.42-30.47,6.42-5.63,0-11.05-.33-16.27-.98-5.22-.65-10.2-1.65-14.93-3-4.73-1.35-9.18-3.04-13.34-5.08v-27.65c6.69,3.43,13.97,6.26,21.84,8.5,7.87,2.24,15.56,3.36,23.06,3.36,6.36,0,11.66-1.08,15.91-3.24,4.24-2.16,7.42-5.12,9.54-8.87,2.12-3.75,3.18-8.03,3.18-12.85,0-5.14-1.08-9.52-3.24-13.15-2.16-3.63-5.63-6.99-10.4-10.09-4.77-3.1-11.03-6.48-18.78-10.16-5.55-2.61-10.71-5.46-15.48-8.57-4.77-3.1-8.95-6.63-12.54-10.58-3.59-3.96-6.38-8.63-8.38-14.01-2-5.38-3-11.75-3-19.09-.08-9.95,2.1-18.56,6.55-25.82,4.45-7.26,10.69-12.87,18.72-16.82,8.03-3.96,17.44-5.89,28.2-5.81,8.24,0,16.07.94,23.49,2.81,7.42,1.88,14.52,4.45,21.29,7.71l-8.69,23.98c-6.36-3.1-12.5-5.49-18.41-7.16-5.91-1.67-11.81-2.51-17.68-2.51-5.47,0-10.07.96-13.83,2.88-3.75,1.92-6.63,4.57-8.63,7.95-2,3.39-3,7.32-3,11.81,0,5.3,1.04,9.71,3.12,13.21,2.08,3.51,5.44,6.75,10.09,9.73,4.65,2.98,10.81,6.3,18.48,9.97,8.73,4.16,16.09,8.55,22.09,13.15,6,4.61,10.54,9.97,13.64,16.09,3.1,6.12,4.65,13.5,4.65,22.15Z"/>
    <path class="cls-1" d="M607.18,214.04V35.16h28.14v178.89h-28.14Z"/>
    <path class="cls-1" d="M767.96,164.37c0,10.52-2.32,19.7-6.97,27.53s-11.26,13.89-19.82,18.17c-8.57,4.28-18.72,6.42-30.47,6.42-5.63,0-11.05-.33-16.27-.98-5.22-.65-10.2-1.65-14.93-3-4.73-1.35-9.18-3.04-13.34-5.08v-27.65c6.69,3.43,13.97,6.26,21.84,8.5,7.87,2.24,15.56,3.36,23.06,3.36,6.36,0,11.66-1.08,15.91-3.24,4.24-2.16,7.42-5.12,9.54-8.87,2.12-3.75,3.18-8.03,3.18-12.85,0-5.14-1.08-9.52-3.24-13.15-2.16-3.63-5.63-6.99-10.4-10.09-4.77-3.1-11.03-6.48-18.78-10.16-5.55-2.61-10.71-5.46-15.48-8.57-4.77-3.1-8.95-6.63-12.54-10.58-3.59-3.96-6.38-8.63-8.38-14.01-2-5.38-3-11.75-3-19.09-.08-9.95,2.1-18.56,6.55-25.82,4.45-7.26,10.69-12.87,18.72-16.82,8.03-3.96,17.44-5.89,28.2-5.81,8.24,0,16.07.94,23.49,2.81,7.42,1.88,14.52,4.45,21.29,7.71l-8.69,23.98c-6.36-3.1-12.5-5.49-18.41-7.16-5.91-1.67-11.81-2.51-17.68-2.51-5.47,0-10.07.96-13.83,2.88-3.75,1.92-6.63,4.57-8.63,7.95-2,3.39-3,7.32-3,11.81,0,5.3,1.04,9.71,3.12,13.21,2.08,3.51,5.44,6.75,10.09,9.73,4.65,2.98,10.81,6.3,18.48,9.97,8.73,4.16,16.09,8.55,22.09,13.15,6,4.61,10.54,9.97,13.64,16.09,3.1,6.12,4.65,13.5,4.65,22.15Z"/>
    <path class="cls-1" d="M852.26,214.04h-28.14V59.5h-43.19v-24.35h114.4v24.35h-43.07v154.54Z"/>
    <path class="cls-1" d="M1007.66,214.04h-88.34V35.16h88.34v23.98h-60.2v49.68h56.28v23.98h-56.28v56.9h60.2v24.35Z"/>
    <path class="cls-1" d="M1111.54,214.04l-45.52-145.73h-.98c.33,4.4.61,9.2.86,14.38.24,5.18.47,10.34.67,15.48.2,5.14.31,9.87.31,14.19v101.68h-25.94V35.16h39.28l43.68,139.24h.86l44.54-139.24h39.28v178.89h-26.92v-102.29c0-4.24.06-8.85.18-13.83.12-4.98.31-10.01.55-15.11.24-5.1.49-9.85.73-14.25h-.98l-46.5,145.48h-24.1Z"/>
    <path class="cls-1" d="M1342.31,214.04l-14.44-50.04h-54.82l-14.44,50.04h-29.86l54.94-179.25h33.28l55.18,179.25h-29.86ZM1321.75,139.53l-14.32-51.51c-.57-2.77-1.31-5.95-2.2-9.54-.9-3.59-1.79-7.18-2.69-10.77-.9-3.59-1.63-6.77-2.2-9.54-.49,3.02-1.14,6.32-1.96,9.91-.82,3.59-1.65,7.12-2.51,10.58-.86,3.47-1.65,6.51-2.39,9.12l-14.19,51.76h42.46Z"/>
    <path class="cls-1" d="M1484.61,164.37c0,10.52-2.32,19.7-6.97,27.53-4.65,7.83-11.26,13.89-19.82,18.17-8.57,4.28-18.72,6.42-30.47,6.42-5.63,0-11.05-.33-16.27-.98-5.22-.65-10.2-1.65-14.93-3-4.73-1.35-9.18-3.04-13.34-5.08v-27.65c6.69,3.43,13.97,6.26,21.84,8.5,7.87,2.24,15.56,3.36,23.06,3.36,6.36,0,11.66-1.08,15.91-3.24,4.24-2.16,7.42-5.12,9.54-8.87,2.12-3.75,3.18-8.03,3.18-12.85,0-5.14-1.08-9.52-3.24-13.15-2.16-3.63-5.63-6.99-10.4-10.09-4.77-3.1-11.03-6.48-18.78-10.16-5.55-2.61-10.71-5.46-15.48-8.57-4.77-3.1-8.95-6.63-12.54-10.58-3.59-3.96-6.38-8.63-8.38-14.01-2-5.38-3-11.75-3-19.09-.08-9.95,2.1-18.56,6.55-25.82,4.45-7.26,10.69-12.87,18.72-16.82,8.03-3.96,17.44-5.89,28.2-5.81,8.24,0,16.07.94,23.49,2.81,7.42,1.88,14.52,4.45,21.29,7.71l-8.69,23.98c-6.36-3.1-12.5-5.49-18.41-7.16-5.91-1.67-11.81-2.51-17.68-2.51-5.47,0-10.07.96-13.83,2.88-3.75,1.92-6.63,4.57-8.63,7.95-2,3.39-3,7.32-3,11.81,0,5.3,1.04,9.71,3.12,13.21,2.08,3.51,5.44,6.75,10.09,9.73,4.65,2.98,10.81,6.3,18.48,9.97,8.73,4.16,16.09,8.55,22.09,13.15,6,4.61,10.54,9.97,13.64,16.09,3.1,6.12,4.65,13.5,4.65,22.15Z"/>
  </g>
</svg>