<?xml version="1.0" standalone="no"?>
<!DOCTYPE svg PUBLIC "-//W3C//DTD SVG 20010904//EN"
 "http://www.w3.org/TR/2001/REC-SVG-20010904/DTD/svg10.dtd">
<svg version="1.0" xmlns="http://www.w3.org/2000/svg"
 width="512.000000pt" height="512.000000pt" viewBox="0 0 512.000000 512.000000"
 preserveAspectRatio="xMidYMid meet">

<g
  transform="translate(0,512) scale(0.100000,-0.100000)"
  fill="currentColor"
  stroke="none"
>
<path d="M2200 5104 c-38 -17 -75 -48 -93 -79 -8 -13 -14 -97 -17 -225 l-5
-205 -620 -5 c-563 -5 -623 -7 -652 -22 -48 -27 -91 -86 -103 -142 -8 -36 -10
-673 -8 -2161 l3 -2110 22 -42 c25 -47 71 -84 122 -102 49 -16 3373 -16 3422
0 51 18 97 55 122 102 l22 42 3 2110 c2 1488 0 2125 -8 2161 -12 56 -55 115
-103 142 -29 15 -89 17 -652 22 l-620 5 -5 205 c-5 212 -8 226 -52 267 -54 50
-74 53 -420 53 -266 -1 -329 -3 -358 -16z m684 -150 c3 -9 6 -133 6 -277 l0
-262 -162 -138 c-88 -75 -164 -137 -168 -137 -4 0 -80 62 -168 137 l-162 138
0 262 c0 144 3 268 6 277 5 14 43 16 324 16 281 0 319 -2 324 -16z m-796 -534
c6 -55 14 -73 53 -115 l40 -43 -84 -3 c-68 -3 -90 -8 -119 -28 -62 -43 -81
-82 -86 -176 -5 -97 7 -142 51 -192 57 -64 43 -63 617 -63 574 0 560 -1 617
63 44 50 56 95 51 193 -4 70 -9 89 -32 123 -40 57 -95 81 -185 81 l-74 0 41
44 c40 43 48 61 54 116 l3 25 580 3 c319 1 590 0 602 -3 12 -3 29 -12 37 -21
14 -14 16 -222 16 -2126 0 -1951 -1 -2113 -17 -2130 -15 -17 -81 -18 -1691
-18 -1545 0 -1677 1 -1694 17 -17 15 -18 95 -18 2127 0 1161 4 2116 8 2122 22
32 47 33 637 31 l590 -2 3 -25z m316 -345 c29 -24 69 -51 89 -60 73 -31 136
-14 223 60 l52 45 137 0 c75 0 145 -5 156 -10 16 -9 19 -22 19 -80 0 -58 -3
-71 -19 -80 -13 -6 -188 -10 -501 -10 -313 0 -488 4 -501 10 -27 15 -28 144
-1 159 9 6 79 11 155 11 l139 0 52 -45z"/>
<path d="M1287 3638 c-23 -14 -45 -38 -57 -63 -20 -41 -20 -59 -18 -1386 l3
-1344 23 -33 c52 -72 -53 -67 1322 -67 1228 0 1235 0 1270 21 19 11 45 38 57
60 l23 39 0 1334 c0 1314 0 1335 -20 1376 -13 26 -34 49 -59 63 -37 21 -51 22
-278 22 -237 0 -240 0 -261 -23 -27 -29 -28 -71 -2 -97 19 -19 33 -20 245 -20
l225 0 0 -1142 0 -1141 -38 59 c-48 73 -124 144 -189 177 -27 14 -155 58 -284
97 -308 94 -302 92 -316 120 -7 14 -13 52 -12 85 0 58 1 61 39 90 48 36 126
135 151 191 10 22 25 67 34 100 8 32 19 60 23 62 39 13 81 46 99 78 19 33 23
54 23 140 0 91 -2 105 -24 137 -24 35 -25 41 -28 269 -3 220 -4 236 -26 279
-35 71 -84 122 -154 160 l-63 34 -415 0 -415 0 -55 -26 c-70 -33 -136 -99
-169 -169 -25 -53 -26 -61 -29 -280 -3 -217 -3 -227 -27 -271 -21 -39 -25 -60
-25 -132 0 -122 22 -167 101 -207 30 -16 37 -26 43 -61 14 -85 71 -186 151
-266 l75 -75 0 -63 c0 -74 -21 -109 -72 -119 -74 -14 -468 -140 -528 -169 -85
-39 -183 -137 -233 -232 l-36 -70 -1 1173 0 1172 835 0 c822 0 835 0 855 20
26 26 26 74 0 100 -20 20 -33 20 -872 20 l-853 0 -38 -22z m1699 -480 c44 -24
91 -81 103 -125 6 -21 11 -120 11 -219 l0 -182 -25 -4 -25 -5 0 121 c0 142
-10 183 -53 233 -42 48 -82 63 -164 63 -66 0 -95 -10 -173 -55 -14 -8 -50 -15
-82 -15 -47 0 -70 7 -124 35 -55 30 -76 35 -130 35 -70 0 -125 -18 -162 -53
-46 -43 -52 -67 -52 -216 0 -77 -3 -142 -7 -144 -5 -3 -19 -1 -32 4 l-23 9 4
193 c4 214 12 245 74 295 61 49 82 51 469 49 317 -2 364 -4 391 -19z m-581
-292 c82 -56 226 -58 331 -5 48 24 71 30 110 27 l49 -3 5 -192 c5 -186 6 -192
29 -217 30 -32 80 -34 136 -6 22 11 50 20 63 20 22 0 23 -3 20 -62 l-3 -63
-43 -6 c-23 -3 -50 -12 -58 -21 -9 -9 -22 -51 -29 -93 -18 -103 -63 -192 -124
-247 -191 -172 -459 -169 -637 9 -64 63 -99 135 -117 241 -16 93 -30 111 -88
112 -43 0 -49 10 -49 81 0 44 2 49 23 49 12 0 40 -9 62 -20 44 -22 102 -26
126 -7 34 26 39 54 39 226 0 93 3 176 6 185 10 27 105 21 149 -8z m165 -1137
c78 0 149 10 193 27 14 5 17 -1 17 -39 0 -30 9 -63 28 -98 l29 -54 -130 -63
-130 -62 -121 57 c-67 31 -125 60 -129 63 -4 4 3 29 17 55 16 29 26 64 26 90
0 23 2 44 5 47 3 3 29 -1 58 -9 28 -7 90 -14 137 -14z m434 -270 c-16 -17 -60
-58 -97 -92 l-68 -60 -46 22 c-28 14 -42 26 -37 31 9 9 262 129 273 130 3 0
-8 -14 -25 -31z m-729 -38 c69 -32 128 -61 130 -63 3 -3 -17 -15 -44 -28 l-50
-23 -90 83 c-50 46 -91 85 -91 87 0 9 31 -3 145 -56z m-143 -149 c143 -134
173 -138 342 -47 l99 53 120 -59 c66 -32 127 -59 136 -59 57 0 97 26 229 149
l137 127 115 -36 c63 -20 134 -47 158 -59 58 -29 116 -89 147 -152 33 -65 65
-188 65 -251 l0 -48 -1120 0 -1119 0 5 33 c28 157 73 266 143 340 61 65 109
92 248 136 l118 38 40 -37 c22 -20 84 -77 137 -128z"/>
<path d="M1230 510 c-27 -27 -25 -66 5 -95 24 -25 27 -25 200 -25 173 0 176 0
200 25 14 13 25 31 25 40 0 20 -19 57 -34 67 -6 4 -93 8 -193 8 -170 0 -184
-1 -203 -20z"/>
<path d="M1876 508 c-23 -32 -20 -71 7 -96 l23 -22 978 0 977 0 24 25 c30 29
32 68 5 95 -20 20 -33 20 -1009 20 l-990 0 -15 -22z"/>
</g>
</svg>
