<?xml version="1.0" standalone="no"?>
<!DOCTYPE svg PUBLIC "-//W3C//DTD SVG 20010904//EN"
 "http://www.w3.org/TR/2001/REC-SVG-20010904/DTD/svg10.dtd">
<svg version="1.0" xmlns="http://www.w3.org/2000/svg"
 width="512.000000pt" height="512.000000pt" viewBox="0 0 512.000000 512.000000"
 preserveAspectRatio="xMidYMid meet">

<g
  transform="translate(0,512) scale(0.100000,-0.100000)"
  fill="currentColor"
  stroke="none"
>
<path d="M277 4870 c-105 -18 -199 -90 -246 -190 l-26 -55 0 -2065 0 -2065 26
-55 c49 -104 140 -171 255 -190 80 -13 4468 -13 4548 0 116 19 206 86 254 188
l27 57 0 2065 0 2065 -26 56 c-49 105 -138 170 -255 189 -72 12 -4487 11
-4557 0z m4569 -206 c18 -9 43 -31 54 -49 18 -30 20 -49 20 -254 l0 -221
-2360 0 -2360 0 0 221 c0 204 2 224 20 254 43 70 -159 65 2338 65 2050 0 2257
-1 2288 -16z m74 -2427 c0 -1620 -1 -1694 -18 -1726 -10 -19 -34 -43 -53 -53
-32 -17 -124 -18 -2287 -18 -2499 0 -2298 -6 -2342 65 -20 32 -20 45 -20 1729
l0 1696 2360 0 2360 0 0 -1693z"/>
<path d="M503 4493 c-12 -2 -34 -18 -48 -34 -35 -43 -34 -92 4 -130 49 -49
126 -35 156 28 35 73 -30 151 -112 136z"/>
<path d="M883 4493 c-30 -6 -73 -59 -73 -89 0 -33 25 -81 49 -94 55 -29 132 5
147 64 16 67 -51 132 -123 119z"/>
<path d="M1263 4485 c-100 -43 -65 -185 46 -185 44 0 81 37 88 86 5 36 1 45
-23 72 -35 37 -69 45 -111 27z"/>
<path d="M3677 3549 c-170 -23 -318 -98 -442 -223 -162 -164 -233 -346 -222
-571 7 -131 25 -203 78 -310 97 -196 277 -344 489 -402 103 -28 312 -25 410 5
319 100 529 359 556 687 20 245 -98 508 -297 661 -160 123 -375 180 -572 153z
m3 -501 l0 -302 213 -213 c171 -173 209 -216 197 -224 -135 -90 -331 -115
-492 -62 -158 52 -295 183 -354 337 -32 86 -44 236 -24 324 42 196 193 359
390 423 30 10 58 18 63 18 4 1 7 -135 7 -301z m372 235 c82 -43 184 -146 226
-229 47 -94 65 -168 65 -269 0 -102 -19 -180 -66 -268 l-30 -58 -184 183 -183
183 0 262 0 262 53 -16 c28 -8 82 -31 119 -50z"/>
<path d="M1683 3202 c-12 -9 -27 -30 -32 -45 -7 -19 -11 -277 -11 -773 l0
-744 -125 0 -125 0 0 425 c0 453 -3 480 -48 504 -27 15 -576 15 -603 1 -48
-26 -49 -40 -49 -500 l0 -430 -59 0 c-70 0 -107 -24 -117 -74 -7 -40 15 -89
49 -108 32 -18 1921 -18 1954 0 57 32 66 122 16 162 -21 16 -40 20 -109 20
l-84 0 0 744 c0 504 -3 753 -11 774 -21 61 -29 62 -341 62 -253 0 -285 -2
-305 -18z m455 -864 l2 -688 -150 0 -150 0 0 683 c0 376 3 687 7 691 4 3 70 5
147 4 l141 -3 3 -687z m-948 -318 l0 -370 -150 0 -150 0 0 370 0 370 150 0
150 0 0 -370z"/>
<path d="M3036 1609 c-36 -43 -35 -91 3 -130 l29 -29 701 0 c502 0 707 3 725
11 38 18 60 71 46 114 -23 69 21 65 -766 65 l-712 0 -26 -31z"/>
<path d="M545 1056 c-87 -87 25 -222 122 -150 76 57 38 174 -57 174 -30 0 -47
-6 -65 -24z"/>
<path d="M1011 1054 c-26 -21 -31 -33 -31 -68 0 -53 21 -83 68 -96 25 -6 593
-10 1722 -10 1584 0 1687 1 1720 18 49 24 68 77 45 125 -9 19 -27 39 -41 46
-18 8 -478 11 -1739 11 l-1713 0 -31 -26z"/>
</g>
</svg>
