<?xml version="1.0" standalone="no"?>
<!DOCTYPE svg PUBLIC "-//W3C//DTD SVG 20010904//EN"
 "http://www.w3.org/TR/2001/REC-SVG-20010904/DTD/svg10.dtd">
<svg version="1.0" xmlns="http://www.w3.org/2000/svg"
 width="512.000000pt" height="512.000000pt" viewBox="0 0 512.000000 512.000000"
 preserveAspectRatio="xMidYMid meet">

<g
  transform="translate(0,512) scale(0.100000,-0.100000)"
  fill="currentColor"
  stroke="none"
>
<path d="M742 4814 l-22 -15 0 -784 0 -784 22 -15 c29 -21 51 -20 71 2 16 17
17 84 17 755 l0 737 1640 0 1640 0 2 -712 3 -712 26 -15 c24 -13 29 -13 53 2
l26 17 0 755 0 754 -22 15 c-20 14 -201 16 -1728 16 -1527 0 -1708 -2 -1728
-16z"/>
<path d="M3576 4554 c-17 -16 -21 -51 -8 -70 4 -6 24 -20 45 -31 l39 -19 -638
-215 c-373 -125 -648 -223 -662 -235 -20 -16 -24 -26 -18 -48 16 -63 3 -66
697 168 353 119 644 215 646 212 2 -2 -5 -22 -16 -45 -16 -31 -19 -46 -11 -65
11 -29 49 -43 77 -27 10 5 49 64 87 130 67 119 68 121 52 147 -10 14 -25 28
-34 31 -9 3 -58 23 -109 44 -102 43 -124 47 -147 23z"/>
<path d="M1026 4524 c-19 -18 -21 -65 -4 -82 17 -17 709 -17 726 0 17 17 15
64 -4 82 -13 14 -60 16 -359 16 -299 0 -346 -2 -359 -16z"/>
<path d="M1022 4198 c-18 -18 -14 -63 6 -81 17 -15 56 -17 359 -17 317 0 341
1 356 18 20 22 22 63 5 80 -17 17 -709 17 -726 0z"/>
<path d="M3600 4110 c-19 -19 -20 -33 -20 -460 0 -427 1 -441 20 -460 18 -18
33 -20 163 -20 127 0 146 2 160 18 15 17 17 64 17 464 0 418 -1 446 -18 461
-15 14 -42 17 -160 17 -129 0 -144 -2 -162 -20z m230 -460 l0 -370 -65 0 -65
0 0 370 0 370 65 0 65 0 0 -370z"/>
<path d="M3157 3962 c-15 -17 -17 -58 -17 -389 0 -346 1 -371 18 -386 16 -14
43 -17 164 -17 128 0 147 2 161 18 15 17 17 58 17 390 0 324 -2 373 -16 386
-13 13 -42 16 -163 16 -131 0 -150 -2 -164 -18z m231 -384 l-3 -293 -65 0 -65
0 -3 293 -2 292 70 0 70 0 -2 -292z"/>
<path d="M1028 3869 c-21 -12 -24 -69 -6 -87 16 -16 690 -17 719 -2 23 13 26
62 3 84 -13 14 -60 16 -357 16 -214 0 -349 -4 -359 -11z"/>
<path d="M2729 3811 l-24 -19 0 -297 0 -297 24 -19 c20 -17 40 -19 160 -19
103 0 142 4 157 14 18 14 19 31 22 310 l3 296 -25 25 c-24 24 -30 25 -159 25
-118 0 -138 -2 -158 -19z m221 -316 l0 -215 -65 0 -65 0 0 215 0 215 65 0 65
0 0 -215z"/>
<path d="M2280 3660 c-19 -19 -20 -33 -20 -240 0 -279 -13 -260 178 -260 197
0 182 -22 182 260 0 194 -2 231 -16 244 -13 13 -42 16 -160 16 -131 0 -146 -2
-164 -20z m230 -235 l0 -145 -65 0 -65 0 0 145 0 145 65 0 65 0 0 -145z"/>
<path d="M868 3050 c-121 -31 -248 -135 -305 -250 -40 -82 -52 -135 -53 -230
0 -139 42 -248 136 -349 173 -187 459 -192 643 -13 252 246 174 684 -145 820
-66 28 -208 39 -276 22z m185 -116 c20 -3 40 -10 42 -15 11 -17 -48 -113 -101
-166 -85 -85 -232 -140 -334 -125 -29 4 -31 7 -24 36 27 130 154 254 283 276
45 8 59 7 134 -6z m235 -203 c21 -44 27 -73 30 -148 3 -51 1 -93 -3 -93 -26 0
-133 72 -180 121 l-56 59 39 47 c22 27 50 68 63 92 l23 44 28 -34 c16 -19 41
-58 56 -88z m-263 -172 c38 -50 148 -134 203 -155 23 -9 42 -23 42 -31 0 -26
-102 -122 -159 -150 -47 -24 -69 -28 -136 -28 -68 0 -89 4 -137 28 -99 49
-184 155 -204 255 l-7 32 54 0 c78 0 182 25 247 59 31 16 59 29 62 30 3 0 19
-18 35 -40z"/>
<path d="M4038 3050 c-154 -39 -289 -171 -339 -329 -23 -76 -28 -212 -9 -282
36 -131 134 -253 253 -313 310 -155 668 80 667 438 -1 153 -45 261 -150 366
-87 88 -166 121 -295 126 -49 2 -107 -1 -127 -6z m210 -121 c12 -5 22 -15 22
-22 0 -24 -75 -130 -120 -171 -79 -71 -216 -118 -318 -108 -29 3 -32 6 -26 30
22 95 92 193 173 240 78 45 193 59 269 31z m201 -178 c35 -66 57 -180 44 -228
l-8 -33 -52 25 c-51 23 -173 130 -173 151 0 6 20 36 43 66 24 31 50 71 57 88
l13 31 22 -21 c13 -12 37 -48 54 -79z m-231 -213 c60 -65 132 -116 195 -139
20 -7 37 -16 37 -20 0 -18 -75 -100 -117 -128 -140 -93 -313 -73 -427 49 -45
48 -87 124 -101 183 l-7 27 59 0 c74 0 202 32 257 64 22 13 42 24 44 25 2 1
29 -27 60 -61z"/>
<path d="M2480 2963 c-169 -28 -339 -158 -414 -316 -45 -95 -60 -164 -59 -267
3 -439 434 -714 808 -517 124 66 236 210 281 362 21 73 24 217 5 295 -51 210
-224 388 -423 435 -60 14 -143 17 -198 8z m198 -128 c29 -9 52 -20 52 -25 0
-19 -40 -98 -74 -145 -103 -143 -266 -225 -449 -225 l-80 0 6 43 c14 99 84
211 175 280 104 79 251 107 370 72z m271 -238 c45 -96 62 -209 45 -295 l-6
-31 -49 19 c-76 28 -144 76 -209 147 l-59 65 50 61 c28 33 65 89 82 124 l32
65 42 -47 c24 -26 56 -74 72 -108z m-283 -255 c69 -69 107 -98 170 -129 45
-22 87 -42 95 -45 21 -7 0 -45 -66 -116 -99 -107 -239 -158 -371 -133 -185 34
-328 178 -363 367 l-8 43 96 0 c111 0 187 18 286 66 39 18 71 34 71 34 1 1 41
-39 90 -87z"/>
<path d="M845 1958 c-386 -21 -621 -167 -712 -442 -23 -69 -26 -99 -27 -206
-1 -145 12 -186 85 -265 56 -60 110 -87 250 -124 232 -61 485 -83 713 -62 110
10 280 39 336 56 13 4 15 -11 16 -98 1 -81 5 -114 23 -160 48 -122 135 -200
276 -247 475 -156 1039 -156 1510 0 142 47 228 125 276 247 18 46 23 79 23
161 l1 103 25 -6 c251 -64 558 -79 819 -40 131 20 320 69 378 99 62 32 126 98
155 161 20 44 23 64 22 175 -1 106 -5 137 -27 206 -50 153 -158 278 -298 346
-149 72 -293 99 -539 99 -341 0 -559 -67 -706 -216 -63 -64 -127 -175 -140
-241 -3 -19 -8 -34 -9 -34 -2 0 -41 18 -87 40 -169 80 -383 120 -648 120 -265
0 -479 -40 -648 -120 -46 -22 -85 -40 -87 -40 -1 0 -6 15 -9 34 -13 66 -77
177 -140 241 -163 165 -434 235 -831 213z m355 -123 c120 -18 187 -38 274 -82
122 -61 211 -177 239 -308 l11 -53 -43 -48 c-55 -62 -87 -118 -128 -218 -29
-72 -36 -82 -68 -93 l-35 -12 0 82 c0 99 -14 131 -56 135 -51 5 -63 -19 -66
-138 l-3 -105 -80 -12 c-103 -16 -437 -16 -540 0 l-80 12 -5 106 c-5 116 -15
139 -60 139 -46 0 -59 -25 -62 -126 l-3 -91 -79 22 c-90 27 -140 62 -176 126
-22 38 -25 55 -24 134 3 255 145 437 394 505 145 40 419 51 590 25z m3183 0
c328 -49 494 -207 523 -497 8 -89 -8 -155 -53 -207 -42 -49 -65 -62 -160 -89
l-73 -20 0 90 c0 102 -12 128 -60 128 -45 0 -55 -23 -60 -139 l-5 -106 -80
-12 c-104 -16 -386 -18 -495 -4 -144 19 -130 6 -130 125 0 116 -12 141 -66
134 -40 -4 -54 -38 -54 -130 0 -68 -2 -78 -17 -77 -42 1 -56 17 -87 99 -36 97
-70 153 -129 217 l-41 44 11 54 c45 213 216 345 508 391 112 17 351 17 468 -1z
m-1513 -340 c52 -9 135 -29 185 -46 290 -97 445 -313 445 -622 0 -193 -71
-270 -311 -337 l-68 -19 -3 127 c-3 125 -3 126 -29 141 -24 13 -29 13 -53 -2
-26 -17 -26 -18 -26 -152 0 -119 -2 -134 -17 -139 -58 -18 -277 -36 -433 -36
-156 0 -375 18 -432 36 -16 5 -18 20 -18 139 0 134 0 135 -26 152 -24 15 -29
15 -53 2 -26 -15 -26 -16 -29 -141 l-3 -127 -68 19 c-132 37 -183 61 -231 109
-60 60 -80 118 -80 228 0 300 146 514 419 613 93 34 206 58 328 70 120 12 387
4 503 -15z"/>
<path d="M817 1762 c-23 -25 -21 -61 2 -86 20 -21 20 -22 -10 -160 -16 -77
-29 -145 -29 -152 0 -22 162 -154 189 -154 14 0 51 22 90 54 114 94 108 73 76
240 l-27 145 21 27 c12 15 21 37 21 50 0 24 -33 54 -61 54 -19 0 -99 -83 -99
-103 0 -8 11 -74 25 -147 l24 -134 -32 -28 c-18 -15 -34 -27 -37 -27 -3 0 -20
12 -37 28 l-33 27 30 139 30 138 -21 33 c-25 40 -65 74 -89 74 -9 0 -24 -8
-33 -18z"/>
<path d="M3992 1764 c-28 -19 -28 -53 -1 -88 l21 -27 -27 -145 c-32 -167 -38
-146 76 -240 36 -30 76 -54 89 -54 22 0 122 73 169 124 l24 26 -31 147 c-30
147 -31 148 -11 169 35 37 14 104 -33 104 -22 0 -63 -35 -87 -74 l-21 -33 30
-138 30 -139 -33 -27 c-17 -16 -34 -28 -37 -28 -3 0 -19 12 -37 27 l-32 28 24
134 c14 73 25 139 25 147 0 20 -80 103 -99 103 -9 0 -27 -7 -39 -16z"/>
<path d="M2382 1394 c-28 -19 -29 -60 -2 -94 25 -32 25 -38 -10 -220 -17 -85
-28 -164 -25 -175 5 -19 144 -137 191 -163 20 -10 28 -10 48 0 47 26 186 144
191 163 3 11 -8 90 -25 175 -35 182 -35 188 -10 220 28 35 26 76 -5 96 -14 9
-33 13 -44 9 -27 -8 -91 -97 -91 -126 0 -13 14 -93 30 -178 17 -85 30 -155 30
-156 0 0 -22 -18 -50 -39 l-50 -38 -50 38 c-57 44 -56 19 -14 228 13 65 24
130 24 144 0 27 -61 116 -86 126 -22 9 -27 8 -52 -10z"/>
</g>
</svg>
