<?xml version="1.0" standalone="no"?>
<!DOCTYPE svg PUBLIC "-//W3C//DTD SVG 20010904//EN"
 "http://www.w3.org/TR/2001/REC-SVG-20010904/DTD/svg10.dtd">
<svg version="1.0" xmlns="http://www.w3.org/2000/svg"
 width="512.000000pt" height="512.000000pt" viewBox="0 0 512.000000 512.000000"
 preserveAspectRatio="xMidYMid meet">

<g
  transform="translate(0,512) scale(0.100000,-0.100000)"
  fill="currentColor"
  stroke="none"
>
<path d="M623 4945 c-153 -42 -261 -155 -293 -310 -7 -34 -9 -641 -8 -1865 l3
-1815 23 -58 c44 -108 121 -184 233 -230 54 -22 59 -22 739 -25 488 -2 692 1
711 9 38 15 55 60 39 98 -6 16 -19 33 -28 38 -10 4 -327 10 -707 13 -763 6
-712 1 -783 71 -73 72 -67 -112 -67 1929 0 2041 -6 1857 67 1929 72 71 -29 66
1210 69 l1117 2 3 -232 c3 -216 5 -236 25 -273 25 -47 64 -85 113 -111 31 -17
64 -19 268 -22 l232 -3 0 -524 c0 -368 3 -531 11 -549 26 -55 112 -55 138 0 8
18 11 179 11 542 0 563 -2 586 -57 682 -33 59 -534 560 -593 593 -102 59 -65
57 -1260 56 -911 0 -1104 -3 -1147 -14z m2602 -445 l180 -180 -158 0 c-154 0
-158 1 -182 25 -24 24 -25 28 -25 180 0 85 1 155 3 155 1 0 83 -81 182 -180z"/>
<path d="M1883 4308 c-32 -16 -48 -61 -34 -97 16 -38 49 -51 129 -51 l67 0
-182 -182 -182 -182 -99 96 c-54 53 -109 99 -124 103 -16 4 -37 1 -54 -8 -47
-25 -512 -498 -519 -529 -13 -51 41 -106 92 -93 18 4 107 85 246 223 l217 217
93 -92 c103 -102 127 -118 165 -108 17 4 111 90 245 223 l217 216 0 -66 c0
-80 13 -113 51 -129 37 -15 82 2 98 37 15 33 15 354 0 387 -6 14 -22 30 -36
36 -31 14 -360 14 -390 -1z"/>
<path d="M2923 3828 c-32 -16 -48 -61 -34 -97 17 -40 49 -51 151 -51 102 0
134 11 151 51 15 37 -2 82 -37 98 -31 14 -201 13 -231 -1z"/>
<path d="M2124 3668 c-12 -5 -27 -21 -33 -34 -15 -35 -15 -833 0 -867 19 -41
49 -47 229 -47 180 0 210 6 229 47 15 34 15 832 0 866 -6 14 -22 30 -36 36
-31 14 -360 14 -389 -1z m276 -468 l0 -320 -80 0 -80 0 0 320 0 320 80 0 80 0
0 -320z"/>
<path d="M1484 3428 c-12 -5 -27 -21 -33 -34 -15 -34 -15 -594 0 -627 19 -41
49 -47 229 -47 180 0 210 6 229 47 7 16 11 122 11 313 0 306 -3 329 -47 349
-31 14 -360 14 -389 -1z m276 -348 l0 -200 -80 0 -80 0 0 200 0 200 80 0 80 0
0 -200z"/>
<path d="M2923 3348 c-32 -16 -48 -61 -34 -97 17 -40 49 -51 151 -51 102 0
134 11 151 51 15 37 -2 82 -37 98 -31 14 -201 13 -231 -1z"/>
<path d="M844 3188 c-12 -5 -27 -21 -33 -34 -15 -33 -15 -355 0 -387 19 -41
49 -47 229 -47 180 0 210 6 229 47 15 32 15 354 0 386 -6 14 -22 30 -36 36
-31 14 -360 14 -389 -1z m276 -228 l0 -80 -80 0 -80 0 0 80 0 80 80 0 80 0 0
-80z"/>
<path d="M2923 2868 c-32 -16 -48 -61 -34 -97 17 -40 49 -51 151 -51 102 0
134 11 151 51 15 37 -2 82 -37 98 -31 14 -201 13 -231 -1z"/>
<path d="M3564 2869 c-12 -6 -27 -22 -33 -35 -15 -35 -16 -1153 0 -1187 6 -14
22 -30 36 -36 34 -16 1152 -15 1187 0 43 20 51 57 38 184 -50 477 -363 869
-817 1023 -134 45 -366 74 -411 51z m281 -179 c368 -84 681 -397 765 -765 10
-44 21 -99 24 -122 l6 -43 -480 0 -480 0 0 480 0 480 43 -6 c23 -3 78 -14 122
-24z"/>
<path d="M3155 2553 c-536 -67 -940 -438 -1052 -967 -24 -112 -24 -342 1 -456
91 -432 394 -775 805 -909 127 -42 220 -55 371 -55 253 0 458 61 664 198 302
201 489 516 528 886 13 121 5 159 -38 179 -18 8 -181 11 -549 11 l-525 0 0
525 c0 363 -3 532 -11 548 -19 43 -78 55 -194 40z m45 -678 c0 -363 3 -532 11
-548 6 -14 22 -30 36 -36 16 -8 185 -11 549 -11 l524 0 -6 -42 c-63 -443 -367
-783 -794 -891 -123 -31 -358 -31 -484 1 -374 94 -659 373 -763 749 -25 88
-28 114 -28 263 0 149 3 175 28 263 112 403 422 688 831 762 39 7 77 14 84 14
9 1 12 -110 12 -524z"/>
<path d="M843 2388 c-12 -6 -27 -23 -34 -39 -15 -37 2 -82 37 -98 18 -8 203
-11 634 -11 431 0 616 3 634 11 35 16 52 61 37 98 -7 15 -24 33 -37 40 -34 15
-1239 14 -1271 -1z"/>
<path d="M843 1908 c-12 -6 -27 -23 -34 -39 -15 -37 2 -82 37 -98 34 -15 514
-15 548 0 55 26 55 112 0 138 -33 15 -520 14 -551 -1z"/>
<path d="M1643 1908 c-32 -16 -48 -61 -34 -97 17 -40 49 -51 151 -51 102 0
134 11 151 51 15 37 -2 82 -37 98 -31 14 -201 13 -231 -1z"/>
<path d="M843 1428 c-12 -6 -27 -23 -34 -39 -15 -37 2 -82 37 -98 17 -8 162
-11 474 -11 312 0 457 3 474 11 55 26 55 112 0 138 -33 15 -919 14 -951 -1z"/>
</g>
</svg>
