<?xml version="1.0" encoding="UTF-8"?>
<svg id="Layer_1" xmlns="http://www.w3.org/2000/svg" viewBox="0 0 868.46 669.67">
  <defs>
    <style>
      .cls-1 {
        fill: #034996;
      }
    </style>
  </defs>
  <path class="cls-1" d="M36.34,638.82c6.46,3.9,17.74,6.91,26.88,6.91,16.92,0,26.15-9.9,26.15-24.08s-8.53-21.9-22.71-31.68c-19.17-12.29-32.67-29.55-32.67-48.29,0-27.11,18.41-48.48,50.78-48.48,11.17,0,21.27,3.31,25.89,6.29l-5.1,23.57c-4.7-3.08-12.05-5.91-21.42-5.91-15.59,0-23.02,10.6-23.02,21.01,0,13.45,6.93,19.55,24.59,30.95,22.04,14.26,30.79,31.08,30.79,49.72,0,31.01-22.33,50.84-53.32,50.84-13.03,0-26.04-3.68-31.44-7.24l4.59-23.61Z"/>
  <rect class="cls-1" x="137.79" y="494.75" width="27.46" height="173.38"/>
  <path class="cls-1" d="M191.95,638.82c6.46,3.9,17.73,6.91,26.88,6.91,16.92,0,26.15-9.9,26.15-24.08s-8.53-21.9-22.71-31.68c-19.17-12.29-32.67-29.55-32.67-48.29,0-27.11,18.41-48.48,50.78-48.48,11.17,0,21.27,3.31,25.89,6.29l-5.1,23.57c-4.7-3.08-12.05-5.91-21.42-5.91-15.59,0-23.02,10.6-23.02,21.01,0,13.45,6.93,19.55,24.59,30.95,22.04,14.26,30.79,31.08,30.79,49.72,0,31.01-22.33,50.84-53.32,50.84-13.03,0-26.04-3.68-31.44-7.24l4.59-23.61Z"/>
  <polygon class="cls-1" points="312.75 519.93 281.65 519.93 281.65 494.75 371.44 494.75 371.44 519.93 340.2 519.93 340.2 668.13 312.75 668.13 312.75 519.93"/>
  <polygon class="cls-1" points="458.83 589.13 417.58 589.13 417.58 644.3 464.35 644.3 464.35 668.13 390.12 668.13 390.12 494.75 461.29 494.75 461.29 518.58 417.58 518.58 417.58 566.17 458.83 566.17 458.83 589.13"/>
  <path class="cls-1" d="M592.23,601.18c-.99-19.44-2.13-43.04-1.65-62.2h-.85c-3.38,18.93-8.01,39.99-12.21,56.51l-17.89,70.58h-18.84l-17.04-68.58c-4.42-17.64-9.24-39.14-12.22-58.51h-.73c-.22,19.59-1.39,42.54-2.39,63.08l-3.05,66.06h-23.94l11.49-173.38h29.26l16.71,70.19c5.26,22.39,9.63,40.57,13.02,60.22h.62c2.98-19.48,6.84-37.65,11.84-60.22l16.38-70.19h29.55l10.25,173.38h-24.93l-3.38-66.95Z"/>
  <path class="cls-1" d="M669.66,622.94l-9.35,45.19h-26.61l38.56-173.38h32.07l35.85,173.38h-26.84l-9.21-45.19h-34.47ZM701.26,601.42l-7.26-39.8c-2.06-11.32-4.38-27.33-6.25-39.47h-.73c-1.91,12.25-4.48,28.77-6.58,39.58l-7.58,39.69h28.41Z"/>
  <path class="cls-1" d="M756.55,638.82c6.46,3.9,17.73,6.91,26.88,6.91,16.92,0,26.15-9.9,26.15-24.08s-8.53-21.9-22.71-31.68c-19.17-12.29-32.67-29.55-32.67-48.29,0-27.11,18.41-48.48,50.78-48.48,11.17,0,21.27,3.31,25.89,6.29l-5.1,23.57c-4.7-3.08-12.05-5.91-21.41-5.91-15.59,0-23.02,10.6-23.02,21.01,0,13.45,6.93,19.55,24.59,30.95,22.04,14.26,30.79,31.08,30.79,49.72,0,31.01-22.33,50.84-53.32,50.84-13.03,0-26.04-3.68-31.44-7.24l4.59-23.61Z"/>
  <path class="cls-1" d="M95.02,148.49h128.95l-69.28,216.58s475.25-.94,477.64-1.14c14.89-1.27,37.45-2.33,62.99-83.92,24.39-77.92,66.37-178.61,7.34-179.69-3.45-.06-594.4,1.6-593.6.6L140.69,0h656.38s94.02,23.68,66.26,121.16c-27.76,97.47-78.8,260.53-78.8,260.53,0,0-26.59,81.4-137.74,83.68-7.24.15-646.79,0-646.79,0L95.02,148.49Z"/>
  <polygon class="cls-1" points="264.39 148.49 319.05 148.49 282.95 265.09 227.04 265.09 264.39 148.49"/>
  <polygon class="cls-1" points="224.42 274.54 211.33 317.02 398.3 317.02 408.21 274.54 224.42 274.54"/>
  <polygon class="cls-1" points="450.23 194.95 412.88 317.02 466.63 317.02 504.49 194.95 450.23 194.95"/>
  <path class="cls-1" d="M465.64,148.49h196.85c6.72,1.13,19,1.38,24.41,12.41,3.48,7.1.85,17.52.02,21.24-4.55,20.45-32.28,100.17-41.5,126.43-1.78,5.06-6.55,8.45-11.92,8.45h-47.53l38.26-129.36s5.73-15.24-11.18-15.92c-16.91-.68-19.06,13.24-19.06,13.24l-58.35.06s4.98-14.09-11.08-14.26c-16.06-.17-18.78,14.04-18.78,14.04l-53.05.29,12.91-36.62Z"/>
  <polygon class="cls-1" points="592.26 194.95 562.28 297.43 504.49 297.43 533.7 194.95 592.26 194.95"/>
</svg>